<svg width="49" height="49" viewBox="0 0 49 49" fill="none" xmlns="http://www.w3.org/2000/svg">
<path d="M34.2842 25.2683L14.347 25.2683L14.347 23.3437L34.2842 23.3437L34.2842 25.2683Z" fill="black"/>
<path d="M29.644 17.313L35.8799 24.288L29.6621 31.6685L28.1906 30.4292L33.3315 24.3255L28.2086 18.5958L29.644 17.313Z" fill="black"/>
<path d="M24.5 4.59347e-06C38.0089 4.16407e-06 49 10.9908 49 24.5017C49 38.0113 38.0092 49 24.5 49C10.9908 49 3.46534e-06 38.0092 3.03593e-06 24.5C2.60652e-06 10.9908 10.9908 5.02288e-06 24.5 4.59347e-06ZM24.5 47.0752C36.949 47.0752 47.0752 36.9476 47.0752 24.5C47.0752 12.0524 36.949 1.92481 24.5 1.92481C12.051 1.92481 1.92481 12.0524 1.92481 24.5C1.92481 36.9469 12.051 47.0752 24.5 47.0752Z" fill="black"/>
<path d="M13.1006 25.2683L9.40909 25.2683L9.40909 23.3437L13.1006 23.3437L13.1006 25.2683Z" fill="black"/>
</svg>
