<svg width="28" height="28" viewBox="0 0 28 28" fill="none" xmlns="http://www.w3.org/2000/svg">
<path d="M11.8088 9.97148V11.8666H10.3223V14.1828H11.8088V21.0682H14.8646V14.1828H16.9145C16.9145 14.1828 17.1077 13.0722 17.2006 11.8569H14.8764V10.2743C14.8764 10.0362 15.2097 9.71824 15.54 9.71824H17.2036V7.30566H14.9398C11.7336 7.30566 11.8088 9.62466 11.8088 9.97148Z" fill="white"/>
<path d="M5.50503 3.17634C4.77502 3.17634 4.07491 3.46634 3.55871 3.98254C3.04251 4.49873 2.75252 5.19885 2.75252 5.92886V22.444C2.75252 23.174 3.04251 23.8741 3.55871 24.3903C4.07491 24.9065 4.77502 25.1965 5.50503 25.1965H22.0201C22.7501 25.1965 23.4503 24.9065 23.9664 24.3903C24.4826 23.8741 24.7726 23.174 24.7726 22.444V5.92886C24.7726 5.19885 24.4826 4.49873 23.9664 3.98254C23.4503 3.46634 22.7501 3.17634 22.0201 3.17634H5.50503ZM5.50503 0.423828H22.0201C23.4802 0.423828 24.8804 1.00382 25.9128 2.03621C26.9452 3.06861 27.5252 4.46883 27.5252 5.92886V22.444C27.5252 23.904 26.9452 25.3042 25.9128 26.3366C24.8804 27.369 23.4802 27.949 22.0201 27.949H5.50503C4.04501 27.949 2.64478 27.369 1.61239 26.3366C0.579993 25.3042 0 23.904 0 22.444V5.92886C0 4.46883 0.579993 3.06861 1.61239 2.03621C2.64478 1.00382 4.04501 0.423828 5.50503 0.423828V0.423828Z" fill="white"/>
</svg>
