<svg width="28" height="28" viewBox="0 0 28 28" fill="none" xmlns="http://www.w3.org/2000/svg">
<path d="M19.3101 27.5042H8.19271C6.02041 27.5016 3.93784 26.6374 2.40192 25.1013C0.866004 23.5651 0.00218758 21.4824 0 19.3101L0 8.19266C0.00255283 6.02037 0.86672 3.93779 2.4029 2.40188C3.93907 0.865959 6.02179 0.00214005 8.19409 -4.76837e-05H19.3115C21.4838 0.00250626 23.5664 0.866673 25.1023 2.40285C26.6382 3.93902 27.502 6.02174 27.5042 8.19404V19.3114C27.5016 21.4837 26.6375 23.5663 25.1013 25.1022C23.5651 26.6381 21.4824 27.502 19.3101 27.5042V27.5042ZM24.7379 8.19404C24.7379 7.48125 24.5975 6.77544 24.3248 6.1169C24.052 5.45837 23.6522 4.86001 23.1482 4.35599C22.6441 3.85197 22.0458 3.45216 21.3872 3.17938C20.7287 2.90661 20.0229 2.76621 19.3101 2.76621H8.19271C6.7534 2.76658 5.37317 3.3386 4.35555 4.35648C3.33793 5.37435 2.76626 6.75473 2.76626 8.19404V19.3114C2.76663 20.7508 3.33865 22.131 4.35652 23.1486C5.3744 24.1662 6.75478 24.7379 8.19409 24.7379H19.3115C20.7508 24.7375 22.131 24.1655 23.1486 23.1476C24.1663 22.1298 24.7379 20.7494 24.7379 19.3101V8.19266V8.19404Z" fill="white"/>
<path d="M13.751 20.6277C11.9285 20.6249 10.1815 19.8996 8.89296 18.6107C7.6044 17.3219 6.87942 15.5748 6.87695 13.7523C6.87907 11.9294 7.60407 10.1817 8.89296 8.89253C10.1818 7.6034 11.9294 6.87805 13.7523 6.87559C15.5755 6.8777 17.3234 7.60289 18.6126 8.89206C19.9018 10.1812 20.6269 11.9291 20.6291 13.7523C20.6262 15.5752 19.9005 17.3226 18.6112 18.6113C17.3218 19.8999 15.5739 20.6246 13.751 20.6264V20.6277ZM13.751 9.54957C12.6367 9.54957 11.5681 9.99221 10.7802 10.7801C9.99225 11.568 9.5496 12.6367 9.5496 13.751C9.5496 14.8653 9.99225 15.9339 10.7802 16.7218C11.5681 17.5097 12.6367 17.9524 13.751 17.9524C14.8653 17.9524 15.9339 17.5097 16.7218 16.7218C17.5098 15.9339 17.9524 14.8653 17.9524 13.751C17.9524 12.6367 17.5098 11.568 16.7218 10.7801C15.9339 9.99221 14.8653 9.54957 13.751 9.54957Z" fill="white"/>
<path d="M21.4485 3.54782C22.3979 3.54782 23.1675 4.31744 23.1675 5.26683C23.1675 6.21621 22.3979 6.98584 21.4485 6.98584C20.4991 6.98584 19.7295 6.21621 19.7295 5.26683C19.7295 4.31744 20.4991 3.54782 21.4485 3.54782Z" fill="white"/>
</svg>
